<?xml version="1.0" standalone="no"?>
<!DOCTYPE svg PUBLIC "-//W3C//DTD SVG 20010904//EN"
 "http://www.w3.org/TR/2001/REC-SVG-20010904/DTD/svg10.dtd">
<svg version="1.0" xmlns="http://www.w3.org/2000/svg"
 width="350.000000pt" height="350.000000pt" viewBox="0 0 350.000000 350.000000"
 preserveAspectRatio="xMidYMid meet">
<metadata>
Created by potrace 1.11, written by Peter Selinger 2001-2013
</metadata>
<g transform="translate(0.000000,350.000000) scale(0.100000,-0.100000)"
fill="#000000" stroke="none">
<path d="M2178 2927 c-29 -22 -32 -60 -7 -91 18 -23 27 -27 52 -22 16 3 36 14
43 24 43 57 -31 132 -88 89z"/>
<path d="M1999 2774 c-7 -9 -14 -25 -16 -36 -4 -26 22 -68 42 -68 20 0 19 -5
-10 -34 -29 -29 -31 -52 -9 -84 33 -47 114 -18 114 41 0 27 -45 72 -61 61 -5
-3 -9 -1 -9 3 0 5 10 13 22 18 60 26 39 115 -26 115 -19 0 -39 -7 -47 -16z"/>
<path d="M2303 2779 c-24 -9 -43 -38 -43 -67 0 -55 91 -70 120 -19 13 24 13
30 0 53 -18 32 -47 44 -77 33z"/>
<path d="M1870 2752 c-27 -22 -29 -65 -5 -92 38 -42 105 -12 105 45 0 57 -56
83 -100 47z"/>
<path d="M1119 2745 c-430 -79 -780 -419 -875 -850 -23 -107 -27 -316 -7 -420
61 -328 262 -610 548 -770 94 -53 242 -106 335 -120 20 -3 47 -8 60 -10 34 -7
203 -7 270 1 44 5 164 32 239 55 48 14 207 99 266 141 126 91 258 240 324 366
12 22 11 23 -11 16 -39 -13 -170 -12 -231 3 -80 18 -151 52 -223 106 l-60 46
-58 -55 c-62 -58 -168 -115 -251 -134 -65 -15 -169 -19 -220 -7 -22 5 -51 11
-63 13 -66 13 -181 82 -245 148 -65 66 -129 180 -143 251 -2 11 -7 34 -10 50
-11 51 -6 161 10 225 41 158 141 284 286 359 91 47 140 60 235 65 124 6 270
-42 372 -124 28 -22 53 -40 55 -40 2 0 27 22 54 48 56 54 119 92 202 122 72
26 90 28 185 29 l79 1 -53 68 c-66 85 -164 179 -237 229 -31 21 -59 40 -62 43
-11 12 -129 70 -180 89 -127 47 -211 62 -365 66 -99 2 -176 -1 -226 -10z"/>
<path d="M2423 2742 c-37 -24 -30 -95 11 -109 36 -12 42 -11 66 7 27 21 30 63
5 90 -18 20 -60 26 -82 12z"/>
<path d="M2546 2684 c-22 -22 -20 -70 4 -92 18 -16 36 -20 72 -13 4 0 15 15
23 31 15 28 14 33 -2 60 -13 23 -24 30 -49 30 -18 0 -40 -7 -48 -16z"/>
<path d="M2151 2633 c-24 -30 -20 -58 11 -85 27 -23 53 -23 78 2 27 27 26 75
-2 94 -33 23 -64 19 -87 -11z"/>
<path d="M2312 2640 c-12 -5 -27 -21 -34 -35 -14 -32 2 -72 34 -85 l23 -9 -22
0 c-30 -1 -63 -35 -63 -64 0 -35 36 -68 67 -63 42 8 65 35 57 70 -3 17 -12 36
-20 42 -18 14 -18 24 0 24 18 0 46 38 46 63 0 18 -42 68 -57 66 -4 0 -18 -4
-31 -9z"/>
<path d="M2685 2628 c-27 -15 -35 -28 -35 -59 0 -55 71 -79 109 -37 25 26 21
66 -10 91 -25 20 -36 21 -64 5z"/>
<path d="M2900 2620 c-14 -14 -19 -29 -16 -48 2 -15 5 -30 5 -33 1 -4 14 -12
30 -19 64 -26 120 51 71 100 -26 26 -64 26 -90 0z"/>
<path d="M2442 2600 c-60 -25 -38 -120 28 -120 56 0 80 70 38 110 -24 22 -32
23 -66 10z"/>
<path d="M2569 2543 c-27 -7 -42 -52 -29 -84 27 -64 120 -39 120 32 0 40 -43
65 -91 52z"/>
<path d="M2134 2505 c-29 -29 -30 -55 -6 -85 24 -30 70 -30 94 0 34 42 16 89
-41 103 -16 4 -30 -1 -47 -18z"/>
<path d="M2408 2453 c-40 -46 -22 -98 36 -109 55 -10 88 64 46 106 -25 25 -62
26 -82 3z"/>
<path d="M2670 2450 c-33 -33 -26 -76 17 -99 31 -16 41 -14 68 13 18 18 23 32
19 53 -9 52 -66 71 -104 33z"/>
<path d="M2542 2395 c-59 -26 -37 -115 29 -115 62 0 85 86 30 114 -22 12 -31
12 -59 1z"/>
<path d="M2922 2390 c-12 -12 -22 -31 -22 -44 0 -27 39 -66 66 -66 26 0 64 40
64 68 0 27 -37 62 -65 62 -12 0 -31 -9 -43 -20z"/>
<path d="M2793 2370 c-23 -9 -43 -39 -43 -62 0 -25 40 -58 70 -58 57 0 80 73
34 109 -30 23 -30 23 -61 11z"/>
<path d="M2342 2334 c-39 -27 -24 -96 24 -108 58 -15 100 51 62 99 -22 29 -54
32 -86 9z"/>
<path d="M2660 2312 c-40 -12 -54 -77 -22 -105 43 -39 116 -4 106 51 -3 14
-10 32 -15 38 -11 14 -48 22 -69 16z"/>
<path d="M3004 2275 c-43 -43 -15 -105 47 -105 50 0 78 70 42 102 -35 30 -61
31 -89 3z"/>
<path d="M2472 2278 c-52 -25 -34 -110 25 -116 59 -6 93 53 56 96 -23 26 -52
33 -81 20z"/>
<path d="M2865 2249 c-44 -35 -22 -109 34 -109 56 0 88 57 54 98 -25 31 -57
35 -88 11z"/>
<path d="M2737 2198 c-9 -7 -19 -27 -23 -43 -11 -60 68 -95 106 -47 25 32 25
57 0 82 -23 23 -58 26 -83 8z"/>
<path d="M1332 2180 c-12 -12 -22 -32 -22 -45 0 -29 36 -65 65 -65 12 0 32 10
44 21 18 17 22 28 17 53 -11 56 -63 74 -104 36z"/>
<path d="M2585 2187 c-27 -14 -35 -27 -35 -58 0 -50 69 -79 104 -43 51 50 -8
135 -69 101z"/>
<path d="M3061 2145 c-35 -46 4 -111 60 -100 32 6 52 29 52 59 0 62 -74 89
-112 41z"/>
<path d="M1172 2140 c-29 -12 -42 -48 -30 -80 11 -30 25 -40 59 -40 65 0 83
91 23 118 -14 7 -26 12 -27 11 -1 0 -12 -4 -25 -9z"/>
<path d="M2942 2138 c-51 -25 -34 -110 23 -116 42 -4 68 18 68 57 0 51 -45 80
-91 59z"/>
<path d="M1450 2110 c-20 -20 -26 -55 -12 -77 4 -6 20 -17 35 -22 66 -25 112
55 61 106 -19 19 -61 16 -84 -7z"/>
<path d="M2669 2076 c-35 -17 -46 -58 -25 -91 24 -37 83 -33 106 8 13 24 13
30 0 53 -19 34 -50 46 -81 30z"/>
<path d="M2806 2075 c-34 -35 -28 -83 15 -105 39 -21 89 12 89 60 0 50 -69 79
-104 45z"/>
<path d="M1587 2063 c-34 -17 -44 -56 -24 -87 19 -29 48 -37 78 -22 34 17 46
58 26 89 -20 31 -47 38 -80 20z"/>
<path d="M1272 2050 c-12 -12 -22 -30 -22 -41 0 -27 43 -68 66 -64 11 2 22 4
26 4 17 2 38 35 38 60 0 56 -65 80 -108 41z"/>
<path d="M3123 2028 c-19 -9 -32 -35 -33 -64 0 -20 41 -54 65 -54 31 0 65 33
65 63 -1 47 -52 77 -97 55z"/>
<path d="M3273 2018 c-27 -13 -37 -49 -22 -82 10 -22 35 -36 66 -36 19 0 53
42 53 65 0 26 -35 65 -58 64 -9 0 -27 -5 -39 -11z"/>
<path d="M3005 2012 c-49 -10 -61 -78 -20 -110 47 -37 108 4 97 66 -4 25 -47
50 -77 44z"/>
<path d="M1110 1988 c-25 -27 -25 -49 -2 -76 27 -31 55 -35 85 -11 30 23 34
54 11 87 -20 29 -67 29 -94 0z"/>
<path d="M1412 2000 c-26 -11 -45 -54 -37 -81 8 -23 54 -48 75 -41 29 9 50 35
50 61 0 32 -8 44 -37 60 -25 13 -21 13 -51 1z"/>
<path d="M2716 1939 c-31 -25 -34 -61 -6 -89 26 -26 64 -25 89 2 25 26 21 66
-10 91 -27 22 -41 22 -73 -4z"/>
<path d="M2858 1946 c-10 -7 -21 -27 -24 -43 -8 -42 28 -77 71 -69 40 8 58 33
50 71 -9 50 -58 71 -97 41z"/>
<path d="M1533 1938 c-12 -6 -26 -23 -32 -39 -20 -57 60 -106 103 -63 51 50
-7 133 -71 102z"/>
<path d="M1240 1922 c-44 -36 -17 -112 40 -112 66 0 85 97 23 121 -33 12 -37
12 -63 -9z"/>
<path d="M3136 1878 c-30 -42 -13 -91 35 -103 57 -14 100 74 53 110 -29 22
-70 18 -88 -7z"/>
<path d="M950 1870 c-39 -39 -11 -110 44 -110 32 0 69 45 60 74 -8 27 -41 56
-65 56 -10 0 -28 -9 -39 -20z"/>
<path d="M3011 1863 c-28 -23 -31 -66 -6 -93 35 -39 105 -13 105 39 0 57 -57
88 -99 54z"/>
<path d="M1361 1846 c-41 -43 -9 -106 53 -106 21 0 56 40 56 63 -1 58 -69 85
-109 43z"/>
<path d="M2737 1802 c-35 -39 -3 -116 43 -107 27 5 60 24 61 35 1 6 2 16 3 23
3 15 -14 50 -28 59 -20 14 -63 8 -79 -10z"/>
<path d="M2871 1799 c-34 -37 0 -113 47 -104 9 2 20 4 24 4 17 2 38 35 38 60
0 56 -70 82 -109 40z"/>
<path d="M1510 1803 c-42 -17 -51 -67 -20 -101 43 -46 118 -10 106 51 -4 17
-10 35 -14 38 -11 12 -55 18 -72 12z"/>
<path d="M1233 1790 c-41 -17 -42 -89 -2 -111 65 -34 126 45 74 96 -26 27 -37
29 -72 15z"/>
<path d="M3147 1742 c-37 -40 -10 -106 43 -104 38 1 49 8 61 39 9 25 -2 60
-25 75 -20 14 -63 8 -79 -10z"/>
<path d="M1110 1730 c-33 -8 -53 -50 -40 -84 17 -46 91 -46 112 -1 23 51 -17
99 -72 85z"/>
<path d="M1361 1713 c-32 -27 -34 -61 -6 -89 44 -44 105 -20 105 41 0 56 -56
83 -99 48z"/>
<path d="M2731 1659 c-37 -40 -7 -102 50 -102 37 0 59 24 59 63 0 55 -70 80
-109 39z"/>
<path d="M2870 1665 c-19 -23 -21 -68 -3 -87 21 -24 75 -23 96 0 22 24 21 65
-1 85 -23 21 -75 22 -92 2z"/>
<path d="M1502 1654 c-42 -29 -17 -114 34 -114 34 0 74 42 69 71 -10 53 -59
74 -103 43z"/>
<path d="M1221 1635 c-22 -29 -20 -58 5 -86 37 -41 104 -11 104 46 0 61 -71
87 -109 40z"/>
<path d="M3136 1598 c-9 -12 -16 -32 -16 -45 0 -20 23 -52 38 -54 4 0 15 -2
24 -4 26 -5 60 27 63 57 7 58 -76 93 -109 46z"/>
<path d="M1099 1579 c-42 -36 -15 -109 41 -109 27 0 53 21 62 50 7 19 -19 70
-35 71 -6 0 -20 2 -29 4 -9 2 -27 -5 -39 -16z"/>
<path d="M1378 1576 c-49 -36 -12 -121 49 -110 34 6 53 29 53 64 0 50 -61 78
-102 46z"/>
<path d="M2992 1547 c-27 -29 -28 -61 -2 -87 26 -26 64 -25 90 2 27 30 25 62
-6 87 -34 27 -55 26 -82 -2z"/>
<path d="M2706 1529 c-23 -18 -27 -27 -22 -53 11 -55 67 -75 106 -36 25 25 25
51 3 78 -28 32 -56 35 -87 11z"/>
<path d="M1548 1524 c-57 -30 -39 -114 26 -114 78 0 91 96 16 122 -9 3 -27 0
-42 -8z"/>
<path d="M1250 1500 c-28 -28 -25 -64 7 -89 39 -31 103 -4 103 43 0 59 -69 87
-110 46z"/>
<path d="M3125 1478 c-41 -23 -47 -66 -15 -98 37 -37 93 -20 105 32 5 21 1 33
-19 52 -28 29 -41 31 -71 14z"/>
<path d="M1130 1440 c-26 -26 -25 -64 2 -90 29 -27 54 -25 83 5 28 27 28 54 0
85 -23 26 -59 26 -85 0z"/>
<path d="M1433 1450 c-25 -10 -38 -48 -28 -79 16 -52 96 -51 114 1 12 34 2 61
-29 78 -22 12 -28 12 -57 0z"/>
<path d="M2980 1432 c-53 -17 -67 -77 -25 -110 52 -41 122 15 93 75 -14 28
-43 43 -68 35z"/>
<path d="M2642 1404 c-57 -40 8 -136 70 -103 25 13 40 46 33 69 -15 49 -61 64
-103 34z"/>
<path d="M1600 1390 c-35 -35 -21 -93 25 -104 46 -12 93 33 80 74 -16 51 -69
66 -105 30z"/>
<path d="M2776 1368 c-22 -30 -20 -61 4 -83 57 -51 136 17 93 81 -21 32 -75
33 -97 2z"/>
<path d="M3087 1352 c-9 -2 -24 -16 -32 -32 -28 -54 16 -102 80 -86 27 7 41
41 31 80 -6 25 -47 45 -79 38z"/>
<path d="M1513 1332 c-33 -5 -49 -33 -44 -79 4 -40 75 -57 104 -25 43 48 5
115 -60 104z"/>
<path d="M1182 1314 c-48 -33 -11 -123 46 -109 56 13 73 65 36 106 -21 23 -52
24 -82 3z"/>
<path d="M2573 1309 c-24 -9 -43 -38 -43 -67 0 -55 91 -70 120 -19 13 24 13
30 0 53 -18 32 -47 44 -77 33z"/>
<path d="M2890 1288 c-27 -29 -26 -73 2 -92 66 -46 139 34 83 90 -30 30 -58
31 -85 2z"/>
<path d="M2701 1256 c-26 -28 -27 -60 -1 -86 26 -26 64 -25 90 2 25 27 25 49
3 77 -27 31 -67 34 -92 7z"/>
<path d="M1372 1254 c-30 -21 -30 -77 0 -98 31 -22 55 -20 82 7 28 28 25 70
-7 92 -27 19 -47 19 -75 -1z"/>
<path d="M2440 1210 c-48 -48 -3 -121 64 -104 23 5 46 41 46 69 0 22 -41 55
-67 55 -13 0 -32 -9 -43 -20z"/>
<path d="M3000 1210 c-11 -11 -20 -30 -20 -43 0 -26 37 -64 60 -62 8 1 22 3
31 3 16 2 39 41 39 66 0 22 -40 56 -65 56 -14 0 -34 -9 -45 -20z"/>
<path d="M2830 1188 c-30 -11 -40 -25 -40 -58 1 -29 19 -57 40 -61 29 -6 69
11 76 34 20 59 -21 105 -76 85z"/>
<path d="M2619 1173 c-17 -4 -39 -43 -39 -68 0 -21 40 -55 65 -55 12 0 31 9
43 20 52 49 3 123 -69 103z"/>
<path d="M2319 1157 c-37 -28 -31 -84 12 -107 37 -20 89 12 89 56 0 49 -62 81
-101 51z"/>
<path d="M2927 1099 c-48 -37 -26 -109 34 -109 54 0 85 59 52 97 -28 32 -56
36 -86 12z"/>
<path d="M2492 1084 c-46 -32 -18 -114 39 -114 29 0 62 34 62 65 0 31 -33 65
-62 65 -9 0 -27 -7 -39 -16z"/>
<path d="M2706 1068 c-21 -29 -20 -51 2 -78 22 -27 65 -29 92 -5 42 38 12 105
-45 105 -24 0 -39 -7 -49 -22z"/>
<path d="M2357 1022 c-55 -60 33 -142 92 -86 21 19 18 74 -4 90 -26 20 -69 17
-88 -4z"/>
<path d="M2228 998 c-9 -7 -19 -25 -22 -41 -9 -39 32 -80 71 -71 35 8 53 30
53 64 0 49 -63 79 -102 48z"/>
<path d="M2619 1003 c-50 -13 -47 -99 3 -117 73 -26 121 81 52 113 -26 11 -28
12 -55 4z"/>
<path d="M2825 990 c-40 -45 -3 -117 54 -104 33 8 51 30 51 64 0 54 -69 80
-105 40z"/>
<path d="M2485 928 c-34 -26 -31 -73 5 -99 32 -24 66 -15 85 22 19 36 4 74
-36 88 -23 8 -33 6 -54 -11z"/>
<path d="M2345 876 c-13 -13 -22 -32 -20 -42 2 -11 4 -22 4 -26 2 -17 35 -38
60 -38 36 0 61 28 61 68 0 22 -7 35 -22 44 -38 20 -58 19 -83 -6z"/>
<path d="M2072 850 c-27 -26 -28 -64 -2 -90 26 -26 62 -26 85 0 28 31 28 58 0
85 -29 30 -54 32 -83 5z"/>
<path d="M2207 852 c-47 -51 4 -126 68 -102 62 23 47 120 -19 120 -19 0 -40
-8 -49 -18z"/>
<path d="M2600 830 c-37 -37 -20 -93 31 -105 55 -13 98 61 58 103 -25 27 -63
28 -89 2z"/>
<path d="M2807 792 c-18 -19 -22 -59 -9 -78 25 -39 90 -33 110 9 13 28 4 62
-22 79 -20 14 -63 8 -79 -10z"/>
<path d="M2355 748 c-45 -26 -52 -63 -19 -99 17 -19 60 -25 80 -11 39 26 32
90 -12 111 -29 13 -24 13 -49 -1z"/>
<path d="M1940 743 c-37 -15 -51 -64 -27 -96 6 -9 26 -19 43 -23 25 -5 36 -1
53 17 48 52 -2 128 -69 102z"/>
<path d="M2056 708 c-23 -33 -19 -64 11 -87 30 -24 58 -20 86 11 22 26 22 50
-2 76 -25 30 -75 29 -95 0z"/>
<path d="M2197 712 c-49 -54 24 -136 82 -93 25 19 31 71 11 96 -17 21 -73 19
-93 -3z"/>
<path d="M2552 653 c-31 -28 -35 -56 -11 -86 23 -30 54 -34 87 -11 28 19 29
67 2 94 -25 25 -51 25 -78 3z"/>
</g>
</svg>
