<svg width="468" height="373" viewBox="0 0 468 373" fill="none" xmlns="http://www.w3.org/2000/svg">
<path d="M278.043 110.758C282.131 110.758 285.445 107.446 285.445 103.36C285.445 99.2749 282.131 95.9629 278.043 95.9629C273.955 95.9629 270.641 99.2749 270.641 103.36C270.641 107.446 273.955 110.758 278.043 110.758Z" fill="white"/>
<path d="M280.621 95.0725C284.709 95.0725 288.024 91.7605 288.024 87.6749C288.024 83.5893 284.709 80.2773 280.621 80.2773C276.533 80.2773 273.219 83.5893 273.219 87.6749C273.219 91.7605 276.533 95.0725 280.621 95.0725Z" fill="white"/>
<path d="M264.254 95.6975C268.342 95.6975 271.656 92.3855 271.656 88.2999C271.656 84.2143 268.342 80.9023 264.254 80.9023C260.166 80.9023 256.852 84.2143 256.852 88.2999C256.852 92.3855 260.166 95.6975 264.254 95.6975Z" fill="white"/>
<path d="M296.375 96.9123C300.463 96.9123 303.778 93.6003 303.778 89.5147C303.778 85.4292 300.463 82.1172 296.375 82.1172C292.287 82.1172 288.973 85.4292 288.973 89.5147C288.973 93.6003 292.287 96.9123 296.375 96.9123Z" fill="white"/>
<path d="M293.902 112.341C297.991 112.341 301.305 109.029 301.305 104.943C301.305 100.858 297.991 97.5459 293.902 97.5459C289.814 97.5459 286.5 100.858 286.5 104.943C286.5 109.029 289.814 112.341 293.902 112.341Z" fill="white"/>
<path d="M311.875 101.284C315.963 101.284 319.277 97.9724 319.277 93.8868C319.277 89.8013 315.963 86.4893 311.875 86.4893C307.787 86.4893 304.473 89.8013 304.473 93.8868C304.473 97.9724 307.787 101.284 311.875 101.284Z" fill="white"/>
<path d="M295.168 80.7473C299.256 80.7473 302.571 77.4353 302.571 73.3497C302.571 69.2641 299.256 65.9521 295.168 65.9521C291.08 65.9521 287.766 69.2641 287.766 73.3497C287.766 77.4353 291.08 80.7473 295.168 80.7473Z" fill="white"/>
<path d="M310.785 84.4133C314.873 84.4133 318.187 81.1013 318.187 77.0157C318.187 72.9302 314.873 69.6182 310.785 69.6182C306.697 69.6182 303.383 72.9302 303.383 77.0157C303.383 81.1013 306.697 84.4133 310.785 84.4133Z" fill="white"/>
<path d="M325.918 90.1408C330.006 90.1408 333.321 86.8288 333.321 82.7433C333.321 78.6577 330.006 75.3457 325.918 75.3457C321.83 75.3457 318.516 78.6577 318.516 82.7433C318.516 86.8288 321.83 90.1408 325.918 90.1408Z" fill="white"/>
<path d="M326.594 107.843C330.682 107.843 333.996 104.531 333.996 100.445C333.996 96.3599 330.682 93.0479 326.594 93.0479C322.506 93.0479 319.191 96.3599 319.191 100.445C319.191 104.531 322.506 107.843 326.594 107.843Z" fill="white"/>
<path d="M309.348 117.052C313.436 117.052 316.75 113.74 316.75 109.654C316.75 105.569 313.436 102.257 309.348 102.257C305.259 102.257 301.945 105.569 301.945 109.654C301.945 113.74 305.259 117.052 309.348 117.052Z" fill="white"/>
<path d="M301.781 130.845C305.87 130.845 309.184 127.533 309.184 123.447C309.184 119.362 305.87 116.05 301.781 116.05C297.693 116.05 294.379 119.362 294.379 123.447C294.379 127.533 297.693 130.845 301.781 130.845Z" fill="white"/>
<path d="M315.871 138.324C319.959 138.324 323.274 135.012 323.274 130.927C323.274 126.841 319.959 123.529 315.871 123.529C311.783 123.529 308.469 126.841 308.469 130.927C308.469 135.012 311.783 138.324 315.871 138.324Z" fill="white"/>
<path d="M328.371 148.696C332.459 148.696 335.774 145.384 335.774 141.298C335.774 137.212 332.459 133.9 328.371 133.9C324.283 133.9 320.969 137.212 320.969 141.298C320.969 145.384 324.283 148.696 328.371 148.696Z" fill="white"/>
<path d="M323.586 124.486C327.674 124.486 330.989 121.174 330.989 117.088C330.989 113.002 327.674 109.69 323.586 109.69C319.498 109.69 316.184 113.002 316.184 117.088C316.184 121.174 319.498 124.486 323.586 124.486Z" fill="white"/>
<path d="M336.481 134.871C340.569 134.871 343.883 131.559 343.883 127.474C343.883 123.388 340.569 120.076 336.481 120.076C332.392 120.076 329.078 123.388 329.078 127.474C329.078 131.559 332.392 134.871 336.481 134.871Z" fill="white"/>
<path d="M351.996 127.857C356.084 127.857 359.399 124.545 359.399 120.459C359.399 116.374 356.084 113.062 351.996 113.062C347.908 113.062 344.594 116.374 344.594 120.459C344.594 124.545 347.908 127.857 351.996 127.857Z" fill="white"/>
<path d="M362.106 140.627C366.194 140.627 369.508 137.315 369.508 133.23C369.508 129.144 366.194 125.832 362.106 125.832C358.017 125.832 354.703 129.144 354.703 133.23C354.703 137.315 358.017 140.627 362.106 140.627Z" fill="white"/>
<path d="M369.266 124.059C373.354 124.059 376.668 120.747 376.668 116.661C376.668 112.576 373.354 109.264 369.266 109.264C365.177 109.264 361.863 112.576 361.863 116.661C361.863 120.747 365.177 124.059 369.266 124.059Z" fill="white"/>
<path d="M366.899 97.3098C370.987 97.3098 374.301 93.9978 374.301 89.9122C374.301 85.8267 370.987 82.5146 366.899 82.5146C362.81 82.5146 359.496 85.8267 359.496 89.9122C359.496 93.9978 362.81 97.3098 366.899 97.3098Z" fill="white"/>
<path d="M378.574 137.094C382.663 137.094 385.977 133.782 385.977 129.696C385.977 125.611 382.663 122.299 378.574 122.299C374.486 122.299 371.172 125.611 371.172 129.696C371.172 133.782 374.486 137.094 378.574 137.094Z" fill="white"/>
<path d="M370.016 154.525C374.104 154.525 377.418 151.213 377.418 147.127C377.418 143.041 374.104 139.729 370.016 139.729C365.927 139.729 362.613 143.041 362.613 147.127C362.613 151.213 365.927 154.525 370.016 154.525Z" fill="white"/>
<path d="M385.973 151.573C390.061 151.573 393.375 148.261 393.375 144.176C393.375 140.09 390.061 136.778 385.973 136.778C381.884 136.778 378.57 140.09 378.57 144.176C378.57 148.261 381.884 151.573 385.973 151.573Z" fill="white"/>
<path d="M375.738 169.592C379.827 169.592 383.141 166.28 383.141 162.194C383.141 158.109 379.827 154.797 375.738 154.797C371.65 154.797 368.336 158.109 368.336 162.194C368.336 166.28 371.65 169.592 375.738 169.592Z" fill="white"/>
<path d="M391.238 166.854C395.327 166.854 398.641 163.542 398.641 159.456C398.641 155.371 395.327 152.059 391.238 152.059C387.15 152.059 383.836 155.371 383.836 159.456C383.836 163.542 387.15 166.854 391.238 166.854Z" fill="white"/>
<path d="M408.598 167.914C412.686 167.914 416 164.602 416 160.517C416 156.431 412.686 153.119 408.598 153.119C404.509 153.119 401.195 156.431 401.195 160.517C401.195 164.602 404.509 167.914 408.598 167.914Z" fill="white"/>
<path d="M394.32 182.701C398.409 182.701 401.723 179.389 401.723 175.304C401.723 171.218 398.409 167.906 394.32 167.906C390.232 167.906 386.918 171.218 386.918 175.304C386.918 179.389 390.232 182.701 394.32 182.701Z" fill="white"/>
<path d="M395.379 198.697C399.467 198.697 402.781 195.385 402.781 191.3C402.781 187.214 399.467 183.902 395.379 183.902C391.291 183.902 387.977 187.214 387.977 191.3C387.977 195.385 391.291 198.697 395.379 198.697Z" fill="white"/>
<path d="M363.801 191.719C367.889 191.719 371.203 188.407 371.203 184.321C371.203 180.236 367.889 176.924 363.801 176.924C359.713 176.924 356.398 180.236 356.398 184.321C356.398 188.407 359.713 191.719 363.801 191.719Z" fill="white"/>
<path d="M347.985 191.784C352.073 191.784 355.387 188.472 355.387 184.387C355.387 180.301 352.073 176.989 347.985 176.989C343.896 176.989 340.582 180.301 340.582 184.387C340.582 188.472 343.896 191.784 347.985 191.784Z" fill="white"/>
<path d="M347.672 207.993C351.76 207.993 355.074 204.681 355.074 200.596C355.074 196.51 351.76 193.198 347.672 193.198C343.584 193.198 340.27 196.51 340.27 200.596C340.27 204.681 343.584 207.993 347.672 207.993Z" fill="white"/>
<path d="M363.586 207.721C367.674 207.721 370.988 204.409 370.988 200.323C370.988 196.238 367.674 192.926 363.586 192.926C359.498 192.926 356.184 196.238 356.184 200.323C356.184 204.409 359.498 207.721 363.586 207.721Z" fill="white"/>
<path d="M377.281 221.221C381.37 221.221 384.684 217.909 384.684 213.823C384.684 209.738 381.37 206.426 377.281 206.426C373.193 206.426 369.879 209.738 369.879 213.823C369.879 217.909 373.193 221.221 377.281 221.221Z" fill="white"/>
<path d="M394.395 214.942C398.483 214.942 401.797 211.63 401.797 207.544C401.797 203.458 398.483 200.146 394.395 200.146C390.306 200.146 386.992 203.458 386.992 207.544C386.992 211.63 390.306 214.942 394.395 214.942Z" fill="white"/>
<path d="M391.043 230.532C395.131 230.532 398.445 227.22 398.445 223.135C398.445 219.049 395.131 215.737 391.043 215.737C386.955 215.737 383.641 219.049 383.641 223.135C383.641 227.22 386.955 230.532 391.043 230.532Z" fill="white"/>
<path d="M372.484 236.574C376.573 236.574 379.887 233.262 379.887 229.177C379.887 225.091 376.573 221.779 372.484 221.779C368.396 221.779 365.082 225.091 365.082 229.177C365.082 233.262 368.396 236.574 372.484 236.574Z" fill="white"/>
<path d="M343.805 223.656C347.893 223.656 351.207 220.344 351.207 216.259C351.207 212.173 347.893 208.861 343.805 208.861C339.717 208.861 336.402 212.173 336.402 216.259C336.402 220.344 339.717 223.656 343.805 223.656Z" fill="white"/>
<path d="M336.59 238.018C340.678 238.018 343.992 234.706 343.992 230.62C343.992 226.535 340.678 223.223 336.59 223.223C332.502 223.223 329.188 226.535 329.188 230.62C329.188 234.706 332.502 238.018 336.59 238.018Z" fill="white"/>
<path d="M326.336 250.399C330.424 250.399 333.738 247.087 333.738 243.001C333.738 238.916 330.424 235.604 326.336 235.604C322.248 235.604 318.934 238.916 318.934 243.001C318.934 247.087 322.248 250.399 326.336 250.399Z" fill="white"/>
<path d="M313.594 260.196C317.682 260.196 320.996 256.884 320.996 252.799C320.996 248.713 317.682 245.401 313.594 245.401C309.506 245.401 306.191 248.713 306.191 252.799C306.191 256.884 309.506 260.196 313.594 260.196Z" fill="white"/>
<path d="M298.953 267.005C303.041 267.005 306.356 263.693 306.356 259.608C306.356 255.522 303.041 252.21 298.953 252.21C294.865 252.21 291.551 255.522 291.551 259.608C291.551 263.693 294.865 267.005 298.953 267.005Z" fill="white"/>
<path d="M216.512 239.298C220.6 239.298 223.914 235.986 223.914 231.901C223.914 227.815 220.6 224.503 216.512 224.503C212.424 224.503 209.109 227.815 209.109 231.901C209.109 235.986 212.424 239.298 216.512 239.298Z" fill="white"/>
<path d="M203.324 247.963C207.413 247.963 210.727 244.651 210.727 240.566C210.727 236.48 207.413 233.168 203.324 233.168C199.236 233.168 195.922 236.48 195.922 240.566C195.922 244.651 199.236 247.963 203.324 247.963Z" fill="white"/>
<path d="M195.524 233.8C199.612 233.8 202.926 230.488 202.926 226.402C202.926 222.317 199.612 219.005 195.524 219.005C191.435 219.005 188.121 222.317 188.121 226.402C188.121 230.488 191.435 233.8 195.524 233.8Z" fill="white"/>
<path d="M189.606 255.655C193.694 255.655 197.008 252.343 197.008 248.257C197.008 244.171 193.694 240.859 189.606 240.859C185.517 240.859 182.203 244.171 182.203 248.257C182.203 252.343 185.517 255.655 189.606 255.655Z" fill="white"/>
<path d="M167.793 248.632C171.881 248.632 175.195 245.32 175.195 241.234C175.195 237.149 171.881 233.837 167.793 233.837C163.705 233.837 160.391 237.149 160.391 241.234C160.391 245.32 163.705 248.632 167.793 248.632Z" fill="white"/>
<path d="M162.063 233.624C166.151 233.624 169.465 230.312 169.465 226.227C169.465 222.141 166.151 218.829 162.063 218.829C157.974 218.829 154.66 222.141 154.66 226.227C154.66 230.312 157.974 233.624 162.063 233.624Z" fill="white"/>
<path d="M158.309 217.923C162.397 217.923 165.711 214.611 165.711 210.525C165.711 206.44 162.397 203.128 158.309 203.128C154.22 203.128 150.906 206.44 150.906 210.525C150.906 214.611 154.22 217.923 158.309 217.923Z" fill="white"/>
<path d="M176.316 226.373C180.405 226.373 183.719 223.061 183.719 218.976C183.719 214.89 180.405 211.578 176.316 211.578C172.228 211.578 168.914 214.89 168.914 218.976C168.914 223.061 172.228 226.373 176.316 226.373Z" fill="white"/>
<path d="M190.508 218.467C194.596 218.467 197.91 215.155 197.91 211.069C197.91 206.984 194.596 203.672 190.508 203.672C186.42 203.672 183.105 206.984 183.105 211.069C183.105 215.155 186.42 218.467 190.508 218.467Z" fill="white"/>
<path d="M208.852 225.092C212.94 225.092 216.254 221.78 216.254 217.694C216.254 213.609 212.94 210.297 208.852 210.297C204.763 210.297 201.449 213.609 201.449 217.694C201.449 221.78 204.763 225.092 208.852 225.092Z" fill="white"/>
<path d="M204.652 209.407C208.741 209.407 212.055 206.095 212.055 202.01C212.055 197.924 208.741 194.612 204.652 194.612C200.564 194.612 197.25 197.924 197.25 202.01C197.25 206.095 200.564 209.407 204.652 209.407Z" fill="white"/>
<path d="M188.246 202.606C192.334 202.606 195.649 199.294 195.649 195.208C195.649 191.123 192.334 187.811 188.246 187.811C184.158 187.811 180.844 191.123 180.844 195.208C180.844 199.294 184.158 202.606 188.246 202.606Z" fill="white"/>
<path d="M173.129 210.644C177.217 210.644 180.531 207.332 180.531 203.246C180.531 199.161 177.217 195.849 173.129 195.849C169.041 195.849 165.727 199.161 165.727 203.246C165.727 207.332 169.041 210.644 173.129 210.644Z" fill="white"/>
<path d="M172.516 194.524C176.604 194.524 179.918 191.212 179.918 187.126C179.918 183.04 176.604 179.729 172.516 179.729C168.427 179.729 165.113 183.04 165.113 187.126C165.113 191.212 168.427 194.524 172.516 194.524Z" fill="white"/>
<path d="M188.969 186.434C193.057 186.434 196.371 183.122 196.371 179.036C196.371 174.951 193.057 171.639 188.969 171.639C184.881 171.639 181.566 174.951 181.566 179.036C181.566 183.122 184.881 186.434 188.969 186.434Z" fill="white"/>
<path d="M204.027 193.39C208.116 193.39 211.43 190.078 211.43 185.992C211.43 181.907 208.116 178.595 204.027 178.595C199.939 178.595 196.625 181.907 196.625 185.992C196.625 190.078 199.939 193.39 204.027 193.39Z" fill="white"/>
<path d="M206.914 177.513C211.002 177.513 214.317 174.201 214.317 170.115C214.317 166.03 211.002 162.718 206.914 162.718C202.826 162.718 199.512 166.03 199.512 170.115C199.512 174.201 202.826 177.513 206.914 177.513Z" fill="white"/>
<path d="M192.645 170.763C196.733 170.763 200.047 167.451 200.047 163.365C200.047 159.28 196.733 155.968 192.645 155.968C188.556 155.968 185.242 159.28 185.242 163.365C185.242 167.451 188.556 170.763 192.645 170.763Z" fill="white"/>
<path d="M174.402 178.543C178.491 178.543 181.805 175.231 181.805 171.146C181.805 167.06 178.491 163.748 174.402 163.748C170.314 163.748 167 167.06 167 171.146C167 175.231 170.314 178.543 174.402 178.543Z" fill="white"/>
<path d="M160.18 169.843C164.268 169.843 167.582 166.531 167.582 162.445C167.582 158.36 164.268 155.048 160.18 155.048C156.092 155.048 152.777 158.36 152.777 162.445C152.777 166.531 156.092 169.843 160.18 169.843Z" fill="white"/>
<path d="M165.113 154.502C169.202 154.502 172.516 151.19 172.516 147.105C172.516 143.019 169.202 139.707 165.113 139.707C161.025 139.707 157.711 143.019 157.711 147.105C157.711 151.19 161.025 154.502 165.113 154.502Z" fill="white"/>
<path d="M178.684 162.96C182.772 162.96 186.086 159.648 186.086 155.563C186.086 151.477 182.772 148.165 178.684 148.165C174.595 148.165 171.281 151.477 171.281 155.563C171.281 159.648 174.595 162.96 178.684 162.96Z" fill="white"/>
<path d="M199.012 156.071C203.1 156.071 206.414 152.759 206.414 148.673C206.414 144.587 203.1 141.275 199.012 141.275C194.924 141.275 191.609 144.587 191.609 148.673C191.609 152.759 194.924 156.071 199.012 156.071Z" fill="white"/>
<path d="M213.27 162.783C217.358 162.783 220.672 159.471 220.672 155.386C220.672 151.3 217.358 147.988 213.27 147.988C209.181 147.988 205.867 151.3 205.867 155.386C205.867 159.471 209.181 162.783 213.27 162.783Z" fill="white"/>
<path d="M185.457 148.313C189.545 148.313 192.859 145.001 192.859 140.915C192.859 136.83 189.545 133.518 185.457 133.518C181.369 133.518 178.055 136.83 178.055 140.915C178.055 145.001 181.369 148.313 185.457 148.313Z" fill="white"/>
<path d="M156.746 201.811C160.834 201.811 164.149 198.499 164.149 194.413C164.149 190.328 160.834 187.016 156.746 187.016C152.658 187.016 149.344 190.328 149.344 194.413C149.344 198.499 152.658 201.811 156.746 201.811Z" fill="white"/>
<path d="M304.242 281.807C308.331 281.807 311.645 278.495 311.645 274.409C311.645 270.324 308.331 267.012 304.242 267.012C300.154 267.012 296.84 270.324 296.84 274.409C296.84 278.495 300.154 281.807 304.242 281.807Z" fill="white"/>
<path d="M302.598 298.634C306.686 298.634 310 295.322 310 291.236C310 287.151 306.686 283.839 302.598 283.839C298.509 283.839 295.195 287.151 295.195 291.236C295.195 295.322 298.509 298.634 302.598 298.634Z" fill="white"/>
<path d="M325.668 325C329.756 325 333.07 321.688 333.07 317.603C333.07 313.517 329.756 310.205 325.668 310.205C321.58 310.205 318.266 313.517 318.266 317.603C318.266 321.688 321.58 325 325.668 325Z" fill="white"/>
<path d="M301.664 314.953C305.752 314.953 309.066 311.641 309.066 307.556C309.066 303.47 305.752 300.158 301.664 300.158C297.576 300.158 294.262 303.47 294.262 307.556C294.262 311.641 297.576 314.953 301.664 314.953Z" fill="white"/>
<path d="M286.762 301.452C290.85 301.452 294.164 298.14 294.164 294.055C294.164 289.969 290.85 286.657 286.762 286.657C282.674 286.657 279.359 289.969 279.359 294.055C279.359 298.14 282.674 301.452 286.762 301.452Z" fill="white"/>
<path d="M288.621 285.326C292.709 285.326 296.024 282.014 296.024 277.929C296.024 273.843 292.709 270.531 288.621 270.531C284.533 270.531 281.219 273.843 281.219 277.929C281.219 282.014 284.533 285.326 288.621 285.326Z" fill="white"/>
<path d="M270.649 301.917C274.737 301.917 278.051 298.605 278.051 294.52C278.051 290.434 274.737 287.122 270.649 287.122C266.56 287.122 263.246 290.434 263.246 294.52C263.246 298.605 266.56 301.917 270.649 301.917Z" fill="white"/>
<path d="M285.703 317.388C289.791 317.388 293.106 314.076 293.106 309.99C293.106 305.905 289.791 302.593 285.703 302.593C281.615 302.593 278.301 305.905 278.301 309.99C278.301 314.076 281.615 317.388 285.703 317.388Z" fill="white"/>
<path d="M269.602 317.61C273.69 317.61 277.004 314.298 277.004 310.212C277.004 306.126 273.69 302.814 269.602 302.814C265.513 302.814 262.199 306.126 262.199 310.212C262.199 314.298 265.513 317.61 269.602 317.61Z" fill="white"/>
<path d="M253.559 315.653C257.647 315.653 260.961 312.341 260.961 308.255C260.961 304.169 257.647 300.857 253.559 300.857C249.47 300.857 246.156 304.169 246.156 308.255C246.156 312.341 249.47 315.653 253.559 315.653Z" fill="white"/>
<path d="M343.691 254.756C347.78 254.756 351.094 251.444 351.094 247.358C351.094 243.273 347.78 239.961 343.691 239.961C339.603 239.961 336.289 243.273 336.289 247.358C336.289 251.444 339.603 254.756 343.691 254.756Z" fill="white"/>
<path d="M352.824 241.367C356.913 241.367 360.227 238.055 360.227 233.97C360.227 229.884 356.913 226.572 352.824 226.572C348.736 226.572 345.422 229.884 345.422 233.97C345.422 238.055 348.736 241.367 352.824 241.367Z" fill="white"/>
<path d="M365.398 251.12C369.487 251.12 372.801 247.808 372.801 243.723C372.801 239.637 369.487 236.325 365.398 236.325C361.31 236.325 357.996 239.637 357.996 243.723C357.996 247.808 361.31 251.12 365.398 251.12Z" fill="white"/>
<path d="M385.793 245.769C389.881 245.769 393.195 242.457 393.195 238.371C393.195 234.286 389.881 230.974 385.793 230.974C381.705 230.974 378.391 234.286 378.391 238.371C378.391 242.457 381.705 245.769 385.793 245.769Z" fill="white"/>
<path d="M378.391 260.129C382.479 260.129 385.793 256.817 385.793 252.732C385.793 248.646 382.479 245.334 378.391 245.334C374.302 245.334 370.988 248.646 370.988 252.732C370.988 256.817 374.302 260.129 378.391 260.129Z" fill="white"/>
<path d="M369.02 273.372C373.108 273.372 376.422 270.06 376.422 265.975C376.422 261.889 373.108 258.577 369.02 258.577C364.931 258.577 361.617 261.889 361.617 265.975C361.617 270.06 364.931 273.372 369.02 273.372Z" fill="white"/>
<path d="M358.129 285.326C362.217 285.326 365.531 282.014 365.531 277.929C365.531 273.843 362.217 270.531 358.129 270.531C354.041 270.531 350.727 273.843 350.727 277.929C350.727 282.014 354.041 285.326 358.129 285.326Z" fill="white"/>
<path d="M356.117 308.306C360.206 308.306 363.52 304.994 363.52 300.908C363.52 296.823 360.206 293.511 356.117 293.511C352.029 293.511 348.715 296.823 348.715 300.908C348.715 304.994 352.029 308.306 356.117 308.306Z" fill="white"/>
<path d="M344.988 275.941C349.077 275.941 352.391 272.629 352.391 268.543C352.391 264.458 349.077 261.146 344.988 261.146C340.9 261.146 337.586 264.458 337.586 268.543C337.586 272.629 340.9 275.941 344.988 275.941Z" fill="white"/>
<path d="M332.078 285.752C336.166 285.752 339.481 282.44 339.481 278.355C339.481 274.269 336.166 270.957 332.078 270.957C327.99 270.957 324.676 274.269 324.676 278.355C324.676 282.44 327.99 285.752 332.078 285.752Z" fill="white"/>
<path d="M332.293 266.121C336.381 266.121 339.695 262.809 339.695 258.724C339.695 254.638 336.381 251.326 332.293 251.326C328.205 251.326 324.891 254.638 324.891 258.724C324.891 262.809 328.205 266.121 332.293 266.121Z" fill="white"/>
<path d="M319.039 275.278C323.127 275.278 326.442 271.966 326.442 267.88C326.442 263.794 323.127 260.482 319.039 260.482C314.951 260.482 311.637 263.794 311.637 267.88C311.637 271.966 314.951 275.278 319.039 275.278Z" fill="white"/>
<path d="M317.883 293.268C321.971 293.268 325.285 289.956 325.285 285.87C325.285 281.785 321.971 278.473 317.883 278.473C313.795 278.473 310.48 281.785 310.48 285.87C310.48 289.956 313.795 293.268 317.883 293.268Z" fill="white"/>
<path d="M331.945 303.986C336.034 303.986 339.348 300.674 339.348 296.588C339.348 292.502 336.034 289.19 331.945 289.19C327.857 289.19 324.543 292.502 324.543 296.588C324.543 300.674 327.857 303.986 331.945 303.986Z" fill="white"/>
<path d="M356.082 264.288C360.17 264.288 363.485 260.976 363.485 256.891C363.485 252.805 360.17 249.493 356.082 249.493C351.994 249.493 348.68 252.805 348.68 256.891C348.68 260.976 351.994 264.288 356.082 264.288Z" fill="white"/>
<path d="M355.559 160.789C359.647 160.789 362.961 157.477 362.961 153.392C362.961 149.306 359.647 145.994 355.559 145.994C351.47 145.994 348.156 149.306 348.156 153.392C348.156 157.477 351.47 160.789 355.559 160.789Z" fill="white"/>
<path d="M344.82 176.107C348.909 176.107 352.223 172.795 352.223 168.709C352.223 164.624 348.909 161.312 344.82 161.312C340.732 161.312 337.418 164.624 337.418 168.709C337.418 172.795 340.732 176.107 344.82 176.107Z" fill="white"/>
<path d="M361.102 175.967C365.19 175.967 368.504 172.655 368.504 168.569C368.504 164.484 365.19 161.172 361.102 161.172C357.013 161.172 353.699 164.484 353.699 168.569C353.699 172.655 357.013 175.967 361.102 175.967Z" fill="white"/>
<path d="M378.879 185.47C382.967 185.47 386.281 182.158 386.281 178.072C386.281 173.987 382.967 170.675 378.879 170.675C374.791 170.675 371.477 173.987 371.477 178.072C371.477 182.158 374.791 185.47 378.879 185.47Z" fill="white"/>
<path d="M347.293 146.855C351.381 146.855 354.695 143.543 354.695 139.457C354.695 135.372 351.381 132.06 347.293 132.06C343.205 132.06 339.891 135.372 339.891 139.457C339.891 143.543 343.205 146.855 347.293 146.855Z" fill="white"/>
<path d="M338.121 161.474C342.209 161.474 345.524 158.162 345.524 154.076C345.524 149.991 342.209 146.679 338.121 146.679C334.033 146.679 330.719 149.991 330.719 154.076C330.719 158.162 334.033 161.474 338.121 161.474Z" fill="white"/>
<path d="M340.012 116.919C344.1 116.919 347.414 113.607 347.414 109.522C347.414 105.436 344.1 102.124 340.012 102.124C335.924 102.124 332.609 105.436 332.609 109.522C332.609 113.607 335.924 116.919 340.012 116.919Z" fill="white"/>
<path d="M340.063 97.8918C344.151 97.8918 347.465 94.5798 347.465 90.4942C347.465 86.4087 344.151 83.0967 340.063 83.0967C335.974 83.0967 332.66 86.4087 332.66 90.4942C332.66 94.5798 335.974 97.8918 340.063 97.8918Z" fill="white"/>
<path d="M262.93 79.7541C267.018 79.7541 270.332 76.4421 270.332 72.3565C270.332 68.271 267.018 64.959 262.93 64.959C258.842 64.959 255.527 68.271 255.527 72.3565C255.527 76.4421 258.842 79.7541 262.93 79.7541Z" fill="white"/>
<path d="M282.691 62.7951C286.78 62.7951 290.094 59.4831 290.094 55.3976C290.094 51.312 286.78 48 282.691 48C278.603 48 275.289 51.312 275.289 55.3976C275.289 59.4831 278.603 62.7951 282.691 62.7951Z" fill="white"/>
<path d="M141.184 184.108C145.272 184.108 148.586 180.796 148.586 176.71C148.586 172.625 145.272 169.312 141.184 169.312C137.095 169.312 133.781 172.625 133.781 176.71C133.781 180.796 137.095 184.108 141.184 184.108Z" fill="white"/>
<path d="M247.156 82.6106C251.244 82.6106 254.559 79.2986 254.559 75.213C254.559 71.1274 251.244 67.8154 247.156 67.8154C243.068 67.8154 239.754 71.1274 239.754 75.213C239.754 79.2986 243.068 82.6106 247.156 82.6106Z" fill="white"/>
<path d="M276.12 255.485C257.728 255.485 241.126 247.815 229.356 235.493C217.497 250.362 199.223 259.887 178.718 259.887C142.972 259.887 113.989 230.929 113.989 195.2C113.989 159.479 142.965 130.514 178.718 130.514C197.146 130.514 213.778 138.213 225.563 150.565C237.414 135.74 255.659 126.237 276.12 126.237C279.287 126.237 282.403 126.466 285.445 126.907C262.914 91.8185 223.537 68.5732 178.718 68.5732C108.73 68.5659 52 125.266 52 195.2C52 265.135 108.73 321.835 178.718 321.835C227.566 321.835 269.962 294.21 291.116 253.733C286.299 254.881 281.283 255.485 276.12 255.485Z" fill="white"/>
</svg>
